<svg id="visual" viewBox="0 0 900 600" width="900" height="600" xmlns="http://www.w3.org/2000/svg" xmlns:xlink="http://www.w3.org/1999/xlink" version="1.1"><rect x="0" y="0" width="900" height="600" fill="#FF0066"></rect><g transform="translate(452.9538397558095 321.5253494088451)"><path d="M149.8 -252.3C203.9 -228.2 264.3 -207.8 276.4 -166.4C288.5 -125 252.3 -62.5 243.2 -5.3C234.1 52 252.1 104 243.2 150.9C234.3 197.8 198.4 239.6 153.4 249.8C108.3 260 54.2 238.5 9 222.9C-36.2 207.3 -72.3 197.6 -104.4 180C-136.4 162.3 -164.3 136.6 -202.6 105.3C-240.8 74 -289.4 37 -284.4 2.9C-279.5 -31.3 -220.9 -62.5 -182 -92.7C-143.1 -122.8 -123.8 -151.9 -96.7 -191.6C-69.7 -231.3 -34.8 -281.7 6.5 -292.9C47.8 -304.2 95.7 -276.4 149.8 -252.3" fill="#BB004B"></path></g></svg>